<svg width="158" height="151" viewBox="0 0 158 151" fill="none" xmlns="http://www.w3.org/2000/svg">
<path fill-rule="evenodd" clip-rule="evenodd" d="M141.8 23.1666C141.8 19.0398 138.283 15.6904 133.95 15.6904H24.05C19.7168 15.6904 16.2 19.0398 16.2 23.1666V127.833C16.2 131.96 19.7168 135.309 24.05 135.309H133.95C138.283 135.309 141.8 131.96 141.8 127.833V23.1666ZM157.5 15.6904V135.309C157.5 143.571 150.474 150.262 141.8 150.262H16.2C7.52574 150.262 0.5 143.571 0.5 135.309V15.6904C0.5 7.42923 7.52574 0.738037 16.2 0.738037H141.8C150.474 0.738037 157.5 7.42923 157.5 15.6904ZM110.565 53.1835C113.634 56.0992 113.634 60.8391 110.565 63.7549L80.044 92.8223C75.4361 97.2033 67.9786 97.2033 63.3707 92.8223L49.4996 79.6119C46.4381 76.6962 46.4381 71.9637 49.4996 69.0405C52.569 66.1248 57.5381 66.1248 60.5996 69.0405L66.1417 74.3187C69.2111 77.2419 74.1958 77.2419 77.273 74.3187L99.465 53.1835C102.526 50.2603 107.503 50.2603 110.565 53.1835Z" fill="#D8343C"/>
</svg>
