<svg width="70" height="69" viewBox="0 0 70 69" fill="none" xmlns="http://www.w3.org/2000/svg">
<g clip-path="url(#clip0_209_2409)">
<path d="M35.5563 58.1466C35.3741 58.1951 35.1865 58.2188 35 58.2188C34.8135 58.2188 34.6259 58.1951 34.4437 58.1466L2.65625 49.6693V51.776L35 60.3374L67.3438 51.776V49.6693L35.5563 58.1466Z" fill="#66ACFF"/>
<path d="M35 62.5313C34.9073 62.5313 34.8146 62.5195 34.724 62.4957L2.65625 54.0066V56.0615L29.645 63.2591L31.7872 63.8305C31.8724 65.0628 32.6335 66.1064 33.7149 66.5754L34.4437 66.7705C34.6259 66.819 34.8135 66.8428 35 66.8428C35.1865 66.8428 35.3741 66.819 35.5563 66.7705L36.2851 66.5754C37.3665 66.1064 38.1276 65.0628 38.2128 63.8305L40.355 63.2591L67.3438 56.0615V54.0066L35.276 62.4957C35.1854 62.5195 35.0927 62.5313 35 62.5313Z" fill="#66ACFF"/>
<path d="M2.65753 2.15745H2.6543L2.65645 47.4376L33.9221 55.7748V10.4935L2.65753 2.15637V2.15745Z" fill="#F2D842"/>
<path d="M36.0781 10.4935V55.7748L67.3438 47.4376V2.15637L36.0781 10.4935Z" fill="#F2D842"/>
<path opacity="0.15" d="M36.0781 10.4935V55.7748L67.3438 47.4376V2.15637L36.0781 10.4935Z" fill="#231F20"/>
<path d="M10.1946 32.1584L25.7919 36.6154C25.891 36.6424 25.9902 36.6564 26.0883 36.6564C26.5573 36.6564 26.9886 36.348 27.1244 35.8737C27.2872 35.3023 26.9562 34.705 26.3827 34.5411L10.7865 30.0841C10.2183 29.9267 9.61783 30.2512 9.45395 30.8259C9.29008 31.3973 9.62214 31.9946 10.1946 32.1584Z" fill="#444444"/>
<path d="M10.1946 39.7064L25.7919 44.1622C25.891 44.1892 25.9902 44.2032 26.0883 44.2032C26.5573 44.2032 26.9886 43.8949 27.1244 43.4205C27.2872 42.848 26.9562 42.2518 26.3827 42.0879L10.7865 37.632C10.2183 37.4746 9.61783 37.7991 9.45395 38.3738C9.29008 38.9463 9.62214 39.5425 10.1946 39.7064Z" fill="#444444"/>
<path d="M10.1946 24.6116L25.7919 29.0685C25.891 29.0955 25.9902 29.1095 26.0883 29.1095C26.5573 29.1095 26.9886 28.8012 27.1244 28.3268C27.2872 27.7554 26.9562 27.1581 26.3827 26.9942L10.7865 22.5373C10.2183 22.3798 9.61783 22.7044 9.45395 23.279C9.29008 23.8504 9.62214 24.4477 10.1946 24.6116Z" fill="#444444"/>
<path d="M10.1946 17.0647L25.7919 21.5217C25.891 21.5486 25.9902 21.5626 26.0883 21.5626C26.5573 21.5626 26.9886 21.2543 27.1244 20.7799C27.2872 20.2085 26.9562 19.6112 26.3827 19.4473L10.7865 14.9904C10.2183 14.833 9.61783 15.1575 9.45395 15.7321C9.29008 16.3035 9.62214 16.9008 10.1946 17.0647Z" fill="#444444"/>
<path d="M43.5849 36.6154C43.6841 36.6154 43.7833 36.6014 43.8814 36.5744L59.4786 32.1174C60.0511 31.9536 60.3832 31.3563 60.2204 30.7849C60.0565 30.2113 59.457 29.8879 58.8878 30.0431L43.2895 34.5001C42.717 34.664 42.3849 35.2613 42.5477 35.8327C42.6846 36.307 43.1159 36.6154 43.5849 36.6154Z" fill="#444444"/>
<path d="M59.2134 37.6321L43.6161 42.088C43.0437 42.2518 42.7116 42.848 42.8744 43.4205C43.0113 43.8949 43.4426 44.2032 43.9115 44.2032C44.0107 44.2032 44.1099 44.1892 44.208 44.1623L59.8053 39.7064C60.3777 39.5425 60.7098 38.9463 60.547 38.3738C60.3821 37.8002 59.7826 37.4768 59.2134 37.6321Z" fill="#444444"/>
<path d="M43.9119 29.1095C44.0111 29.1095 44.1103 29.0955 44.2084 29.0685L59.8056 24.6115C60.3781 24.4477 60.7102 23.8504 60.5474 23.279C60.3835 22.7054 59.7841 22.3798 59.2148 22.5372L43.6176 26.9942C43.0451 27.1581 42.7131 27.7554 42.8759 28.3268C43.0117 28.8011 43.4429 29.1095 43.9119 29.1095Z" fill="#444444"/>
<path d="M43.9119 21.5626C44.0111 21.5626 44.1103 21.5486 44.2084 21.5216L59.8056 17.0646C60.3781 16.9008 60.7102 16.3035 60.5474 15.7321C60.3835 15.1585 59.7841 14.8351 59.2148 14.9903L43.6176 19.4473C43.0451 19.6112 42.7131 20.2085 42.8759 20.7799C43.0117 21.2542 43.4429 21.5626 43.9119 21.5626Z" fill="#444444"/>
<path d="M68.658 0.446425C68.2763 0.154253 67.8127 0.00115967 67.3416 0.00115967C67.1562 0.00115967 66.9696 0.0248784 66.7874 0.0723159L35 8.54961L3.21256 0.0723159C3.02928 0.0238003 2.84277 0.00115967 2.65733 0.00115967C2.18619 0.00115967 1.72367 0.154253 1.34202 0.446425C0.811578 0.855035 0.5 1.48682 0.5 2.15633V56.0615C0.5 57.0383 1.15658 57.8932 2.09994 58.1455L29.9943 65.5835C30.7835 67.5823 32.7219 69.0001 35 69.0001C37.2781 69.0001 39.2165 67.5823 40.0057 65.5835L67.9001 58.1455C68.8434 57.8932 69.5 57.0383 69.5 56.0615V2.15633C69.5 1.48682 69.1884 0.855035 68.658 0.446425ZM2.65733 2.15741L33.9219 10.4935V55.7747L2.65625 47.4376L2.65409 2.15741C2.65409 2.15741 2.65517 2.15741 2.65733 2.15741ZM67.3438 56.0615L40.355 63.2591L38.2128 63.8305C38.1276 65.0628 37.3665 66.1064 36.2851 66.5754L35.5563 66.7705C35.3741 66.819 35.1865 66.8428 35 66.8428C34.8135 66.8428 34.6259 66.819 34.4437 66.7705L33.7149 66.5754C32.6335 66.1064 31.8724 65.0628 31.7872 63.8305L29.645 63.2591L2.65625 56.0615V54.0066L34.724 62.4957C34.8146 62.5195 34.9073 62.5313 35 62.5313C35.0927 62.5313 35.1854 62.5195 35.276 62.4957L67.3438 54.0066V56.0615ZM67.3438 51.776L35 60.3373L2.65625 51.776V49.6693L34.4437 58.1455C34.6259 58.1951 34.8135 58.2188 35 58.2188C35.1865 58.2188 35.3741 58.1951 35.5563 58.1466L67.3438 49.6693V51.776ZM67.3438 47.4376L36.0781 55.7747V10.4935L67.3438 2.15633V47.4376Z" fill="#444444"/>
</g>
<defs>
<clipPath id="clip0_209_2409">
<rect width="69" height="69" fill="white" transform="translate(0.5 0.00012207)"/>
</clipPath>
</defs>
</svg>
