<svg width="70" height="69" viewBox="0 0 70 69" fill="none" xmlns="http://www.w3.org/2000/svg">
<g clip-path="url(#clip0_209_2382)">
<path d="M65.1875 0.00012207H4.8125C2.42877 0.00012207 0.5 1.92889 0.5 4.31262V47.4376C0.5 49.8214 2.42877 51.7501 4.8125 51.7501H30.6875V62.5314H22.0625C19.6809 62.5314 17.75 64.4623 17.75 66.8439V67.922C17.75 68.5182 18.2319 69.0001 18.8281 69.0001H51.1719C51.7681 69.0001 52.25 68.5182 52.25 67.922V66.8439C52.25 64.4623 50.3191 62.5314 47.9375 62.5314H39.3125V51.7501H65.1875C67.5712 51.7501 69.5 49.8214 69.5 47.4376V4.31262C69.5 1.92889 67.5712 0.00012207 65.1875 0.00012207ZM47.9375 64.6876C49.1278 64.6876 50.0938 65.6536 50.0938 66.8439H19.9062C19.9062 65.6536 20.8722 64.6876 22.0625 64.6876H47.9375ZM37.1562 62.5314H32.8438V51.7501H37.1562V62.5314ZM67.3438 47.4376C67.3438 48.6279 66.3777 49.5939 65.1875 49.5939H4.8125C3.62225 49.5939 2.65625 48.6279 2.65625 47.4376V43.1251H67.3438V47.4376ZM67.3438 40.9689H2.65625V4.31262C2.65625 3.12237 3.62225 2.15637 4.8125 2.15637H65.1875C66.3777 2.15637 67.3438 3.12237 67.3438 4.31262V40.9689Z" fill="#444444"/>
<path d="M2.65625 43.1251V47.4376C2.65625 48.6279 3.62225 49.5939 4.8125 49.5939H65.1875C66.3778 49.5939 67.3438 48.6279 67.3438 47.4376V43.1251H2.65625Z" fill="#66ACFF"/>
<path d="M37.1562 51.7501H32.8438V62.5314H37.1562V51.7501Z" fill="#506C7F"/>
<path d="M47.9375 64.6876H22.0625C20.8723 64.6876 19.9062 65.6536 19.9062 66.8439H50.0938C50.0938 65.6536 49.1278 64.6876 47.9375 64.6876Z" fill="#66ACFF"/>
<path d="M2.65625 4.31262V40.9689H67.3438V4.31262C67.3438 3.12237 66.3778 2.15637 65.1875 2.15637H4.8125C3.62225 2.15637 2.65625 3.12237 2.65625 4.31262Z" fill="#F2D842"/>
<path d="M35 48.5157C36.1909 48.5157 37.1562 47.5504 37.1562 46.3595C37.1562 45.1686 36.1909 44.2032 35 44.2032C33.8091 44.2032 32.8438 45.1686 32.8438 46.3595C32.8438 47.5504 33.8091 48.5157 35 48.5157Z" fill="#444444"/>
<path opacity="0.3" d="M37.1562 51.7501H32.8438V62.5314H37.1562V51.7501Z" fill="black"/>
</g>
<defs>
<clipPath id="clip0_209_2382">
<rect width="69" height="69" fill="white" transform="translate(0.5 0.00012207)"/>
</clipPath>
</defs>
</svg>
