<svg width="70" height="69" viewBox="0 0 70 69" fill="none" xmlns="http://www.w3.org/2000/svg">
<g clip-path="url(#clip0_209_2398)">
<path d="M65.1875 0.00012207H4.8125C2.42877 0.00012207 0.5 1.92889 0.5 4.31262V64.6876C0.5 67.0714 2.42877 69.0001 4.8125 69.0001H65.1875C67.5712 69.0001 69.5 67.0714 69.5 64.6876V4.31262C69.5 1.92889 67.5712 0.00012207 65.1875 0.00012207ZM4.8125 2.15637H65.1875C66.3777 2.15637 67.3438 3.12237 67.3438 4.31262V27.4147L55.0434 34.6521C53.8564 33.2409 52.0818 32.3439 50.0938 32.3439C48.1531 32.3439 46.4173 33.2021 45.2314 34.5551L28.0569 23.9862C28.3609 23.2369 28.5312 22.4208 28.5312 21.5626C28.5312 17.9897 25.6354 15.0939 22.0625 15.0939C18.4896 15.0939 15.5938 17.9897 15.5938 21.5626C15.5938 22.9599 16.0401 24.2493 16.7926 25.307L2.65625 39.4444V4.31262C2.65625 3.12237 3.62225 2.15637 4.8125 2.15637ZM50.0938 34.5001C52.4753 34.5001 54.4062 36.431 54.4062 38.8126C54.4062 41.1942 52.4753 43.1251 50.0938 43.1251C47.7122 43.1251 45.7812 41.1942 45.7812 38.8126C45.7812 36.431 47.7122 34.5001 50.0938 34.5001ZM17.75 21.5626C17.75 19.181 19.6809 17.2501 22.0625 17.2501C24.4441 17.2501 26.375 19.181 26.375 21.5626C26.375 23.9442 24.4441 25.8751 22.0625 25.8751C19.6809 25.8751 17.75 23.9442 17.75 21.5626ZM65.1875 66.8439H4.8125C3.62225 66.8439 2.65625 65.8779 2.65625 64.6876V42.4933L18.3171 26.8314C19.3747 27.585 20.6653 28.0314 22.0625 28.0314C24.0031 28.0314 25.7389 27.1743 26.9248 25.8201L44.0994 36.3901C43.7953 37.1383 43.625 37.9555 43.625 38.8126C43.625 42.3855 46.5208 45.2814 50.0938 45.2814C53.6667 45.2814 56.5625 42.3855 56.5625 38.8126C56.5625 38.0019 56.4062 37.2267 56.1345 36.5108L67.3438 29.9159V64.6876C67.3438 65.8779 66.3777 66.8439 65.1875 66.8439Z" fill="#394240"/>
<path d="M50.0938 43.1251C52.4755 43.1251 54.4062 41.1944 54.4062 38.8126C54.4062 36.4309 52.4755 34.5001 50.0938 34.5001C47.712 34.5001 45.7812 36.4309 45.7812 38.8126C45.7812 41.1944 47.712 43.1251 50.0938 43.1251Z" fill="white"/>
<path d="M22.0625 25.8751C24.4442 25.8751 26.375 23.9444 26.375 21.5626C26.375 19.1809 24.4442 17.2501 22.0625 17.2501C19.6808 17.2501 17.75 19.1809 17.75 21.5626C17.75 23.9444 19.6808 25.8751 22.0625 25.8751Z" fill="white"/>
<path d="M65.1875 2.15637H4.8125C3.62225 2.15637 2.65625 3.12237 2.65625 4.31262V39.4444L16.7926 25.307C16.0401 24.2493 15.5938 22.9599 15.5938 21.5626C15.5938 17.9897 18.4896 15.0939 22.0625 15.0939C25.6354 15.0939 28.5312 17.9897 28.5312 21.5626C28.5312 22.4208 28.3609 23.2369 28.058 23.9862L36.6452 29.2707L45.2325 34.5551C46.4173 33.2021 48.1531 32.3439 50.0938 32.3439C52.0818 32.3439 53.8564 33.2409 55.0434 34.6521L67.3438 27.4147V4.31262C67.3438 3.12237 66.3778 2.15637 65.1875 2.15637Z" fill="#F2D842"/>
<path d="M56.5625 38.8126C56.5625 42.3855 53.6667 45.2814 50.0938 45.2814C46.5208 45.2814 43.625 42.3855 43.625 38.8126C43.625 37.9555 43.7953 37.1383 44.0983 36.3901L26.9238 25.8201C25.7389 27.1743 24.0031 28.0314 22.0625 28.0314C20.6653 28.0314 19.3747 27.585 18.3171 26.8314L2.65625 42.4933V64.6876C2.65625 65.8779 3.62225 66.8439 4.8125 66.8439H65.1875C66.3778 66.8439 67.3438 65.8779 67.3438 64.6876V29.9159L56.1345 36.5108C56.4062 37.2267 56.5625 38.0019 56.5625 38.8126Z" fill="#6AAEFF"/>
</g>
<defs>
<clipPath id="clip0_209_2398">
<rect width="69" height="69" fill="white" transform="translate(0.5 0.00012207)"/>
</clipPath>
</defs>
</svg>
