<svg width="40" height="41" viewBox="0 0 40 41" fill="none" xmlns="http://www.w3.org/2000/svg">
<path fill-rule="evenodd" clip-rule="evenodd" d="M20 40.105C31.0457 40.105 40 31.1507 40 20.105C40 9.05929 31.0457 0.10498 20 0.10498C8.9543 0.10498 0 9.05929 0 20.105C0 31.1507 8.9543 40.105 20 40.105ZM9 17.3907C9 15.8907 9 15.1407 9.2992 14.5675C9.5629 14.0632 9.98379 13.6533 10.5015 13.3964C11.09 13.105 11.86 13.105 13.4 13.105H26.6C28.14 13.105 28.91 13.105 29.4985 13.3964C30.0158 13.6534 30.4363 14.0634 30.6997 14.5675C31 15.1407 31 15.8907 31 17.3907V23.8193C31 25.3193 31 26.0693 30.6997 26.6425C30.4361 27.1462 30.0156 27.5557 29.4985 27.8125C28.91 28.105 28.14 28.105 26.6 28.105H13.4C11.86 28.105 11.09 28.105 10.5015 27.8125C9.98396 27.5559 9.56308 27.1463 9.2992 26.6425C9 26.0693 9 25.3193 9 23.8193V17.3907ZM28.4163 15.353C28.3214 15.2846 28.2064 15.2477 28.0883 15.2478H11.9117C11.7936 15.2477 11.6786 15.2846 11.5837 15.353C11.4888 15.4215 11.419 15.5179 11.3847 15.628C11.3504 15.738 11.3534 15.8559 11.3933 15.9642C11.4331 16.0725 11.5076 16.1655 11.6059 16.2293L19.3884 21.2993C19.5694 21.4172 19.7822 21.4801 20 21.4801C20.2178 21.4801 20.4306 21.4172 20.6116 21.2993L28.3941 16.2293C28.4924 16.1655 28.5669 16.0725 28.6067 15.9642C28.6466 15.8559 28.6496 15.738 28.6153 15.628C28.581 15.5179 28.5112 15.4215 28.4163 15.353Z" fill="white"/>
</svg>
