<svg width="40" height="41" viewBox="0 0 40 41" fill="none" xmlns="http://www.w3.org/2000/svg">
<g clip-path="url(#clip0_204_1399)">
<path d="M28.1766 12.0771C28.1846 12.0771 28.1952 12.0771 28.2058 12.0771C28.4834 12.0771 28.741 12.1634 28.9522 12.3122L28.9482 12.3095C29.1023 12.4436 29.2058 12.6322 29.2311 12.8447V12.8487C29.2576 13.0107 29.2722 13.1966 29.2722 13.3865C29.2722 13.4728 29.2696 13.5578 29.2629 13.6428V13.6309C28.9641 16.777 27.668 24.4064 27.0093 27.9284C26.7304 29.4197 26.1819 29.9191 25.6507 29.9669C24.4967 30.0744 23.6202 29.2046 22.502 28.4715C20.7517 27.3228 19.7623 26.6083 18.0637 25.4888C16.0996 24.1966 17.3732 23.4835 18.4914 22.3228C18.7849 22.0173 23.8725 17.3892 23.9721 16.9695C23.9774 16.9443 23.9801 16.9164 23.9801 16.8872C23.9801 16.7836 23.9416 16.6893 23.8792 16.6176C23.8101 16.5724 23.7238 16.5472 23.6335 16.5472C23.5737 16.5472 23.5166 16.5592 23.4635 16.5791L23.4661 16.5778C23.2908 16.6176 20.4949 18.4653 15.0784 22.1209C14.4874 22.5871 13.741 22.8819 12.9283 22.9164H12.9203C11.7689 22.777 10.7238 22.5206 9.73174 22.1554L9.83001 22.1873C8.58433 21.7809 7.59495 21.5671 7.67995 20.8792C7.7251 20.5215 8.21824 20.1554 9.15936 19.7809C14.9566 17.255 18.8225 15.5902 20.757 14.7863C22.8911 13.6535 25.3652 12.7212 27.9668 12.1169L28.1753 12.0758L28.1766 12.0771ZM19.9535 0.10498C8.92829 0.131541 0 9.07576 0 20.105C0 31.1501 8.95352 40.105 20 40.105C31.0465 40.105 40 31.1515 40 20.105C40 9.07576 31.0717 0.131541 20.0491 0.10498H20.0465C20.0155 0.10498 19.9845 0.10498 19.9535 0.10498Z" fill="white"/>
</g>
<defs>
<clipPath id="clip0_204_1399">
<rect width="40" height="40" fill="white" transform="translate(0 0.10498)"/>
</clipPath>
</defs>
</svg>
