<svg width="40" height="41" viewBox="0 0 40 41" fill="none" xmlns="http://www.w3.org/2000/svg">
<path fill-rule="evenodd" clip-rule="evenodd" d="M20 40.5C31.0457 40.5 40 31.5457 40 20.5C40 9.4543 31.0457 0.5 20 0.5C8.9543 0.5 0 9.4543 0 20.5C0 31.5457 8.9543 40.5 20 40.5ZM9 17.7857C9 16.2857 9 15.5357 9.2992 14.9625C9.5629 14.4582 9.98379 14.0483 10.5015 13.7914C11.09 13.5 11.86 13.5 13.4 13.5H26.6C28.14 13.5 28.91 13.5 29.4985 13.7914C30.0158 14.0485 30.4363 14.4584 30.6997 14.9625C31 15.5357 31 16.2857 31 17.7857V24.2143C31 25.7143 31 26.4643 30.6997 27.0375C30.4361 27.5412 30.0156 27.9507 29.4985 28.2075C28.91 28.5 28.14 28.5 26.6 28.5H13.4C11.86 28.5 11.09 28.5 10.5015 28.2075C9.98396 27.9509 9.56308 27.5414 9.2992 27.0375C9 26.4643 9 25.7143 9 24.2143V17.7857ZM28.4163 15.7481C28.3214 15.6796 28.2064 15.6427 28.0883 15.6429H11.9117C11.7936 15.6427 11.6786 15.6796 11.5837 15.7481C11.4888 15.8165 11.419 15.9129 11.3847 16.023C11.3504 16.1331 11.3534 16.251 11.3933 16.3593C11.4331 16.4675 11.5076 16.5605 11.6059 16.6243L19.3884 21.6943C19.5694 21.8122 19.7822 21.8752 20 21.8752C20.2178 21.8752 20.4306 21.8122 20.6116 21.6943L28.3941 16.6243C28.4924 16.5605 28.5669 16.4675 28.6067 16.3593C28.6466 16.251 28.6496 16.1331 28.6153 16.023C28.581 15.9129 28.5112 15.8165 28.4163 15.7481Z" fill="#444444"/>
</svg>
