<svg width="21" height="20" viewBox="0 0 21 20" fill="none" xmlns="http://www.w3.org/2000/svg">
<g opacity="0.5" clip-path="url(#clip0_11_2474)">
<path d="M11.5369 7.5793C11.5369 7.08895 11.3854 6.69553 11.0823 6.39904C10.7793 6.10255 10.3776 5.9543 9.87715 5.9543C9.56862 5.9543 9.28945 6.02569 9.03965 6.16846C8.78984 6.31123 8.57429 6.51923 8.393 6.79246C8.22278 7.05474 7.99127 7.20595 7.69848 7.24609C7.4057 7.28623 7.15312 7.20344 6.94077 6.99772C6.79182 6.84948 6.70947 6.66702 6.69373 6.45035C6.67798 6.23369 6.72841 6.02842 6.84502 5.83457C7.18547 5.2872 7.61912 4.86253 8.14596 4.56057C8.67281 4.2586 9.24987 4.10739 9.87715 4.10693C10.9091 4.10693 11.7471 4.42053 12.391 5.04772C13.0348 5.67492 13.3566 6.49597 13.3561 7.51088C13.3561 8.02404 13.2551 8.48588 13.0529 8.89641C12.8508 9.30693 12.4784 9.79158 11.9358 10.3504C11.5422 10.7495 11.2762 11.0603 11.1379 11.2829C10.9996 11.5055 10.9091 11.7591 10.8666 12.0438C10.824 12.3175 10.7149 12.5455 10.5391 12.728C10.3634 12.9104 10.1533 13.0017 9.90907 13.0017C9.66437 13.0017 9.45436 12.9134 9.27903 12.7369C9.10369 12.5604 9.01581 12.3407 9.01539 12.078C9.01539 11.6332 9.10582 11.2257 9.28669 10.8553C9.46755 10.4849 9.77076 10.0942 10.1963 9.68325C10.7389 9.17009 11.0981 8.77393 11.2739 8.49478C11.4496 8.21562 11.5373 7.91046 11.5369 7.5793ZM9.87715 17.1069C9.52606 17.1069 9.22562 16.9731 8.97581 16.7053C8.72601 16.4375 8.60089 16.1153 8.60046 15.7385C8.60046 15.3622 8.72558 15.0402 8.97581 14.7724C9.22604 14.5047 9.52649 14.3705 9.87715 14.3701C10.2282 14.3701 10.5289 14.5042 10.7791 14.7724C11.0294 15.0406 11.1543 15.3627 11.1538 15.7385C11.1538 16.1148 11.0289 16.4371 10.7791 16.7053C10.5293 16.9735 10.2287 17.1074 9.87715 17.1069Z" fill="#A2A2A2"/>
<path d="M19.5215 10.1069C19.5215 15.377 15.4595 19.6069 10.4998 19.6069C5.54001 19.6069 1.47803 15.377 1.47803 10.1069C1.47803 4.83685 5.54001 0.606934 10.4998 0.606934C15.4595 0.606934 19.5215 4.83685 19.5215 10.1069Z" stroke="#A2A2A2"/>
</g>
<defs>
<clipPath id="clip0_11_2474">
<rect width="19.0435" height="20" fill="white" transform="translate(0.978027)"/>
</clipPath>
</defs>
</svg>
