<svg width="192" height="197" viewBox="0 0 192 197" fill="none" xmlns="http://www.w3.org/2000/svg">
<rect x="18.502" y="39.4917" width="76" height="9" fill="#A31B22"/>
<rect width="75" height="9" transform="matrix(-4.21468e-08 1 1 4.21468e-08 142.502 99.4917)" fill="#A31B22"/>
<g filter="url(#filter0_d_2004_553)">
<path d="M96.502 39.3908L151.502 96.8316L151.502 174.613L18.4937 39.3911L96.502 39.3908Z" fill="#D8343C"/>
</g>
<g filter="url(#filter1_d_2004_553)">
<path d="M64.6861 56.4426L72.9142 48.2144L76.2087 51.5089C76.814 52.1142 77.2292 52.7088 77.4542 53.2927C77.6791 53.8766 77.734 54.4297 77.6189 54.952C77.5064 55.4717 77.2439 55.9377 76.8314 56.3502C76.51 56.6716 76.1631 56.8899 75.7908 57.0051C75.4212 57.1176 75.0462 57.139 74.6659 57.0693C74.2909 56.9997 73.928 56.8537 73.5771 56.6314L73.4968 56.7118C73.7967 57.0385 74.0016 57.4202 74.1115 57.8568C74.224 58.2961 74.2186 58.7487 74.0954 59.2148C73.9749 59.6781 73.7124 60.112 73.3079 60.5165C72.8713 60.9531 72.3732 61.2343 71.8134 61.3602C71.2589 61.4861 70.6724 61.4379 70.0536 61.2156C69.4349 60.9932 68.8175 60.5741 68.2015 59.958L64.6861 56.4426ZM67.8479 56.76L69.2662 58.1782C69.751 58.663 70.1969 58.9242 70.6041 58.9617C71.0139 58.9965 71.3741 58.8585 71.6848 58.5478C71.9125 58.3202 72.0584 58.0644 72.1227 57.7805C72.187 57.4965 72.1669 57.2033 72.0625 56.9006C71.9607 56.6006 71.7705 56.3113 71.492 56.0328L70.0335 54.5744L67.8479 56.76ZM71.2107 53.3972L72.5004 54.6869C72.7388 54.9253 72.9919 55.0953 73.2597 55.1971C73.5329 55.2989 73.8008 55.3257 74.0633 55.2775C74.3284 55.2319 74.5695 55.1007 74.7864 54.8837C75.0837 54.5864 75.2177 54.2409 75.1882 53.8472C75.1614 53.4561 74.9552 53.0678 74.5695 52.6821L73.2477 51.3603L71.2107 53.3972ZM78.4977 59.8807L80.4584 61.8413C81.1119 62.4948 81.5686 63.1631 81.8284 63.8461C82.0935 64.5291 82.1632 65.1907 82.0373 65.8308C81.9114 66.471 81.5873 67.0495 81.065 67.5665C80.5508 68.0861 79.9669 68.4155 79.3133 68.5548C78.6625 68.6914 77.9888 68.6338 77.2924 68.382C76.5987 68.1329 75.9251 67.6816 75.2716 67.0281L72.1981 63.9546L80.4262 55.7264L82.1618 57.4621L75.3318 64.2921L76.6697 65.63C76.9831 65.9433 77.3032 66.1509 77.6299 66.2527C77.9594 66.3518 78.2727 66.3625 78.5701 66.2848C78.8727 66.2072 79.1352 66.0545 79.3575 65.8268C79.687 65.5027 79.8396 65.1036 79.8155 64.6296C79.7968 64.1555 79.553 63.6841 79.0843 63.2153L77.1237 61.2547L78.4977 59.8807ZM89.0722 64.3724L80.844 72.6006L79.1084 70.865L87.3366 62.6368L89.0722 64.3724ZM95.9635 71.2637L94.5292 72.698L90.8088 68.9777L84.015 75.7715L82.2753 74.0319L90.5035 65.8037L95.9635 71.2637ZM100.149 83.6772C99.2516 84.5745 98.3182 85.1678 97.3486 85.4571C96.3816 85.749 95.4402 85.7691 94.5242 85.5173C93.6135 85.2656 92.7952 84.7767 92.0694 84.0509C91.3382 83.3197 90.848 82.4974 90.5989 81.584C90.3498 80.6707 90.3712 79.7306 90.6632 78.7637C90.9551 77.7967 91.5484 76.866 92.443 75.9714C93.3403 75.0741 94.2724 74.4795 95.2393 74.1875C96.2062 73.8956 97.145 73.8755 98.0557 74.1273C98.969 74.3764 99.7913 74.8665 100.523 75.5977C101.248 76.3236 101.736 77.1432 101.985 78.0565C102.239 78.9699 102.221 79.91 101.929 80.8769C101.639 81.8465 101.046 82.78 100.149 83.6772ZM98.3851 81.9135C98.9663 81.3323 99.3694 80.7551 99.5944 80.1819C99.8221 79.6114 99.8824 79.0663 99.7752 78.5467C99.6681 78.0271 99.4043 77.557 98.9837 77.1365C98.5632 76.716 98.0932 76.4522 97.5735 76.345C97.0539 76.2379 96.5075 76.2968 95.9343 76.5218C95.3638 76.7495 94.788 77.1539 94.2068 77.7351C93.6255 78.3164 93.2211 78.8922 92.9934 79.4627C92.7684 80.0359 92.7095 80.5823 92.8166 81.1019C92.9238 81.6215 93.1876 82.0916 93.6081 82.5121C94.0286 82.9326 94.4987 83.1965 95.0183 83.3036C95.5379 83.4107 96.083 83.3505 96.6535 83.1228C97.2267 82.8978 97.8039 82.4947 98.3851 81.9135ZM94.8928 90.6187L98.2636 87.2479L98.822 87.8064C99.1488 87.86 99.5157 87.8412 99.9229 87.7501C100.333 87.6564 100.815 87.4448 101.369 87.1153C101.926 86.7832 102.588 86.2824 103.354 85.6127L107.066 82.3665L112.51 87.8104L105.668 94.6525L106.568 95.5524L103.205 98.9152L101.534 97.2439L103.511 95.2672L98.5488 90.3054L96.5641 92.2901L94.8928 90.6187ZM100.831 89.8152L103.997 92.9811L109.405 87.5734L107.199 85.3677L105.025 87.2841C104.447 87.793 103.907 88.2175 103.406 88.5577C102.908 88.9005 102.445 89.1737 102.016 89.3773C101.593 89.5808 101.198 89.7268 100.831 89.8152ZM106.24 97.9962L114.468 89.768L116.207 91.5076L112.813 94.9026L116.344 98.4341L119.739 95.0392L121.475 96.7748L113.246 105.003L111.511 103.267L114.91 99.8684L111.378 96.3369L107.979 99.7358L106.24 97.9962ZM121.013 102.395L122.973 104.356C123.627 105.01 124.083 105.678 124.343 106.361C124.608 107.044 124.678 107.705 124.552 108.346C124.426 108.986 124.102 109.564 123.58 110.081C123.066 110.601 122.482 110.93 121.828 111.07C121.177 111.206 120.504 111.149 119.807 110.897C119.114 110.648 118.44 110.196 117.786 109.543L114.713 106.469L122.941 98.2412L124.677 99.9769L117.847 106.807L119.184 108.145C119.498 108.458 119.818 108.666 120.145 108.767C120.474 108.867 120.788 108.877 121.085 108.8C121.388 108.722 121.65 108.569 121.872 108.342C122.202 108.018 122.354 107.618 122.33 107.144C122.312 106.67 122.068 106.199 121.599 105.73L119.638 103.77L121.013 102.395ZM131.587 106.887L123.359 115.115L121.623 113.38L129.851 105.152L131.587 106.887ZM133.018 108.319L134.754 110.054L129.579 115.229L129.647 115.297L138.378 113.678L139.901 115.201L131.672 123.429L129.933 121.689L135.111 116.511L135.051 116.45L126.297 118.053L124.79 116.547L133.018 108.319ZM139.414 110.408L140.608 111.601C140.117 112.086 139.544 112.297 138.888 112.236C138.235 112.177 137.604 111.843 136.996 111.235C136.385 110.625 136.05 109.993 135.991 109.339C135.932 108.685 136.147 108.115 136.634 107.627L137.819 108.813C137.632 108.995 137.525 109.22 137.498 109.488C137.474 109.758 137.608 110.039 137.9 110.331C138.184 110.615 138.46 110.747 138.727 110.725C138.995 110.704 139.224 110.598 139.414 110.408Z" fill="white"/>
</g>
<defs>
<filter id="filter0_d_2004_553" x="0.493652" y="25.3909" width="169.008" height="171.222" filterUnits="userSpaceOnUse" color-interpolation-filters="sRGB">
<feFlood flood-opacity="0" result="BackgroundImageFix"/>
<feColorMatrix in="SourceAlpha" type="matrix" values="0 0 0 0 0 0 0 0 0 0 0 0 0 0 0 0 0 0 127 0" result="hardAlpha"/>
<feOffset dy="4"/>
<feGaussianBlur stdDeviation="9"/>
<feComposite in2="hardAlpha" operator="out"/>
<feColorMatrix type="matrix" values="0 0 0 0 0 0 0 0 0 0 0 0 0 0 0 0 0 0 0.25 0"/>
<feBlend mode="normal" in2="BackgroundImageFix" result="effect1_dropShadow_2004_553"/>
<feBlend mode="normal" in="SourceGraphic" in2="effect1_dropShadow_2004_553" result="shape"/>
</filter>
<filter id="filter1_d_2004_553" x="58.7012" y="43.061" width="87.353" height="87.3525" filterUnits="userSpaceOnUse" color-interpolation-filters="sRGB">
<feFlood flood-opacity="0" result="BackgroundImageFix"/>
<feColorMatrix in="SourceAlpha" type="matrix" values="0 0 0 0 0 0 0 0 0 0 0 0 0 0 0 0 0 0 127 0" result="hardAlpha"/>
<feOffset dy="1"/>
<feGaussianBlur stdDeviation="2"/>
<feComposite in2="hardAlpha" operator="out"/>
<feColorMatrix type="matrix" values="0 0 0 0 0 0 0 0 0 0 0 0 0 0 0 0 0 0 0.25 0"/>
<feBlend mode="normal" in2="BackgroundImageFix" result="effect1_dropShadow_2004_553"/>
<feBlend mode="normal" in="SourceGraphic" in2="effect1_dropShadow_2004_553" result="shape"/>
</filter>
</defs>
</svg>
