<svg width="81" height="82" viewBox="0 0 81 82" fill="none" xmlns="http://www.w3.org/2000/svg">
<rect x="0.944336" y="0.0524902" width="80" height="81.8182" rx="10" fill="#797979"/>
<path d="M40.4035 15.1873L46.3944 30.0673C46.9474 31.4409 47.2237 32.1277 47.6472 32.7068C48.0225 33.2201 48.4813 33.6696 49.0054 34.0372C49.5966 34.452 50.2977 34.7229 51.7 35.2646L66.89 41.1332L51.7 47.0019C50.2977 47.5436 49.5966 47.8143 49.0054 48.2291C48.4813 48.5967 48.0225 49.0461 47.6472 49.5596C47.2237 50.1388 46.9474 50.8255 46.3944 52.1991L40.4035 67.0791L34.4126 52.1991C33.8596 50.8255 33.5831 50.1388 33.1597 49.5596C32.7844 49.0461 32.3256 48.5967 31.8015 48.2291C31.2104 47.8143 30.5093 47.5436 29.1071 47.0019L13.917 41.1332L29.1071 35.2646C30.5093 34.7229 31.2104 34.452 31.8015 34.0372C32.3256 33.6696 32.7844 33.2201 33.1597 32.7068C33.5831 32.1277 33.8596 31.4409 34.4126 30.0673L40.4035 15.1873Z" stroke="white" stroke-width="3" stroke-linecap="round" stroke-linejoin="round"/>
</svg>
