<svg width="104" height="107" viewBox="0 0 104 107" fill="none" xmlns="http://www.w3.org/2000/svg">
<rect x="0.444336" y="0.60498" width="103" height="105.341" rx="10" fill="#F2D842"/>
<path d="M45.7266 39.2899L51.9443 17.503L58.162 39.2899C58.5323 40.5873 59.8652 41.3569 61.1739 41.0288L83.1508 35.52L67.3916 51.7982C66.4532 52.7676 66.4532 54.3067 67.3916 55.276L83.1508 71.5542L61.1739 66.0454C59.8652 65.7173 58.5323 66.4869 58.162 67.7843L51.9443 89.5712L45.7266 67.7843C45.3564 66.4869 44.0235 65.7173 42.7148 66.0454L20.7379 71.5542L36.4971 55.276C37.4355 54.3067 37.4355 52.7676 36.4971 51.7982L20.7379 35.5201L42.7148 41.0288C44.0235 41.3569 45.3564 40.5873 45.7266 39.2899ZM84.3694 72.8129C84.3691 72.8126 84.3688 72.8123 84.3685 72.8119L84.3694 72.8129Z" stroke="white" stroke-width="3"/>
</svg>
