<svg width="81" height="82" viewBox="0 0 81 82" fill="none" xmlns="http://www.w3.org/2000/svg">
<rect x="0.0556641" y="0.0524902" width="80" height="81.8182" rx="10" fill="#66ACFF"/>
<path d="M34.5223 30.9365L40.0557 13.9066L45.589 30.9365C45.9237 31.9665 46.8836 32.6639 47.9667 32.6639H65.8729L51.3864 43.189C50.5102 43.8256 50.1436 44.954 50.4783 45.9841L56.0116 63.014L41.5251 52.4889C40.6489 51.8523 39.4624 51.8523 38.5862 52.4889L24.0997 63.014L29.6331 45.9841C29.9677 44.954 29.6011 43.8256 28.7249 43.189L14.2384 32.6639H32.1447C33.2277 32.6639 34.1876 31.9665 34.5223 30.9365ZM22.8548 63.9185C22.8551 63.9182 22.8555 63.9179 22.8559 63.9177L22.8548 63.9185Z" stroke="white" stroke-width="3"/>
</svg>
