<svg width="40" height="41" viewBox="0 0 40 41" fill="none" xmlns="http://www.w3.org/2000/svg">
<g clip-path="url(#clip0_303_907)">
<path d="M28.1766 12.4721C28.1846 12.4721 28.1952 12.4721 28.2058 12.4721C28.4834 12.4721 28.741 12.5584 28.9522 12.7072L28.9482 12.7045C29.1023 12.8386 29.2058 13.0272 29.2311 13.2397V13.2437C29.2576 13.4057 29.2722 13.5916 29.2722 13.7815C29.2722 13.8679 29.2696 13.9529 29.2629 14.0378V14.0259C28.9641 17.172 27.668 24.8015 27.0093 28.3234C26.7304 29.8147 26.1819 30.3141 25.6507 30.3619C24.4967 30.4695 23.6202 29.5996 22.502 28.8665C20.7517 27.7178 19.7623 27.0033 18.0637 25.8838C16.0996 24.5916 17.3732 23.8785 18.4914 22.7178C18.7849 22.4123 23.8725 17.7842 23.9721 17.3645C23.9774 17.3393 23.9801 17.3114 23.9801 17.2822C23.9801 17.1786 23.9416 17.0843 23.8792 17.0126C23.8101 16.9675 23.7238 16.9422 23.6335 16.9422C23.5737 16.9422 23.5166 16.9542 23.4635 16.9741L23.4661 16.9728C23.2908 17.0126 20.4949 18.8603 15.0784 22.5159C14.4874 22.9821 13.741 23.2769 12.9283 23.3114H12.9203C11.7689 23.172 10.7238 22.9157 9.73174 22.5505L9.83001 22.5823C8.58433 22.176 7.59495 21.9622 7.67995 21.2742C7.7251 20.9166 8.21824 20.5505 9.15936 20.176C14.9566 17.6501 18.8225 15.9852 20.757 15.1813C22.8911 14.0485 25.3652 13.1162 27.9668 12.512L28.1753 12.4708L28.1766 12.4721ZM19.9535 0.5C8.92829 0.52656 0 9.47078 0 20.5C0 31.5452 8.95352 40.5 20 40.5C31.0465 40.5 40 31.5465 40 20.5C40 9.47078 31.0717 0.52656 20.0491 0.5H20.0465C20.0155 0.5 19.9845 0.5 19.9535 0.5Z" fill="#444444"/>
</g>
<defs>
<clipPath id="clip0_303_907">
<rect width="40" height="40" fill="white" transform="translate(0 0.5)"/>
</clipPath>
</defs>
</svg>
