<svg width="226" height="221" viewBox="0 0 226 221" fill="none" xmlns="http://www.w3.org/2000/svg">
<path d="M110.502 85.8123L110.502 123.234M110.502 140.658H110.615M74.0689 75.5274L23.1302 80.7422C16.735 81.3968 13.5374 81.7242 12.1138 83.1347C10.8773 84.3598 10.3027 86.0754 10.5605 87.7717C10.8575 89.7242 13.2461 91.8116 18.0231 95.9876L56.0734 129.248C57.4855 130.482 58.1916 131.1 58.6389 131.851C59.0347 132.517 59.282 133.255 59.3649 134.019C59.4586 134.882 59.2614 135.784 58.8669 137.588L48.2392 186.189C46.9049 192.291 46.2378 195.342 47.1808 197.09C48 198.611 49.5046 199.67 51.2474 199.957C53.2537 200.286 56.039 198.728 61.6095 195.612L105.98 170.789C107.627 169.867 108.45 169.408 109.325 169.227C110.1 169.068 110.9 169.068 111.675 169.227C112.55 169.408 113.374 169.867 115.02 170.789L159.391 195.612C164.962 198.728 167.747 200.286 169.753 199.957C171.496 199.67 173 198.611 173.82 197.09C174.763 195.342 174.096 192.291 172.761 186.189L162.133 137.588C161.739 135.784 161.542 134.882 161.636 134.019C161.718 133.255 161.966 132.517 162.362 131.851C162.808 131.1 163.515 130.482 164.927 129.248L202.978 95.9876C207.755 91.8116 210.143 89.7242 210.439 87.7717C210.697 86.0754 210.123 84.3598 208.887 83.1347C207.463 81.7242 204.266 81.3968 197.871 80.7422L146.932 75.5274C145.041 75.3339 144.096 75.2371 143.278 74.8839C142.555 74.5715 141.907 74.1151 141.378 73.5445C140.779 72.8996 140.392 72.0575 139.617 70.3733L118.764 24.9946C116.146 19.2974 114.836 16.4488 113.013 15.5716C111.43 14.8095 109.571 14.8095 107.987 15.5716C106.164 16.4488 104.855 19.2974 102.237 24.9946L81.3828 70.3733C80.6087 72.0575 80.2217 72.8996 79.6229 73.5445C79.0929 74.1151 78.4454 74.5715 77.7222 74.8839C76.9048 75.2371 75.9596 75.3339 74.0689 75.5274Z" stroke="#AEAEAE" stroke-width="10" stroke-linecap="round" stroke-linejoin="round"/>
</svg>
