<svg width="270" height="238" viewBox="0 0 270 238" fill="none" xmlns="http://www.w3.org/2000/svg">
<path d="M126.737 24.9946C129.355 19.2974 130.664 16.4488 132.487 15.5716C134.071 14.8095 135.93 14.8095 137.513 15.5716C139.336 16.4488 140.646 19.2974 143.264 24.9946L164.117 70.3733C164.892 72.0575 165.279 72.8996 165.878 73.5445C166.407 74.1151 167.055 74.5715 167.778 74.8839C168.596 75.2371 169.541 75.3339 171.432 75.5274L222.371 80.7422C228.766 81.3969 231.963 81.7242 233.387 83.1347C234.623 84.3598 235.197 86.0754 234.939 87.7717C234.643 89.7242 232.255 91.8116 227.478 95.9876L189.427 129.248C188.015 130.482 187.308 131.1 186.862 131.851C186.466 132.517 186.218 133.255 186.136 134.019C186.042 134.882 186.239 135.784 186.633 137.588L197.261 186.189C198.596 192.291 199.263 195.342 198.32 197.09C197.5 198.611 195.996 199.67 194.253 199.957C192.247 200.286 189.462 198.728 183.891 195.612L139.52 170.789C137.874 169.867 137.05 169.408 136.175 169.227C135.4 169.068 134.6 169.068 133.825 169.227C132.95 169.408 132.127 169.867 130.48 170.789L86.1095 195.612C80.539 198.728 77.7537 200.286 75.7474 199.957C74.0046 199.67 72.5 198.611 71.6808 197.09C70.7378 195.342 71.4049 192.291 72.7392 186.189L83.3669 137.588C83.7614 135.784 83.9586 134.882 83.8649 134.019C83.782 133.255 83.5347 132.517 83.1389 131.851C82.6916 131.1 81.9855 130.482 80.5734 129.248L42.5231 95.9876C37.7461 91.8116 35.3575 89.7242 35.0605 87.7717C34.8027 86.0754 35.3773 84.3598 36.6138 83.1347C38.0374 81.7242 41.235 81.3969 47.6302 80.7422L98.5689 75.5274C100.46 75.3339 101.405 75.2371 102.222 74.8839C102.945 74.5715 103.593 74.1151 104.123 73.5445C104.722 72.8996 105.109 72.0575 105.883 70.3733L126.737 24.9946Z" fill="#F2D842"/>
</svg>
